<?xml version="1.0" encoding="UTF-8"?>
<svg version="1.1" xmlns="http://www.w3.org/2000/svg" width="256" height="204">
<path d="M0 0 C3.93254008 -0.09895097 7.86459746 -0.1715042 11.7980957 -0.21972656 C13.79339014 -0.24971281 15.78833582 -0.30053786 17.78320312 -0.3515625 C19.03681641 -0.36445312 20.29042969 -0.37734375 21.58203125 -0.390625 C23.31803589 -0.4220459 23.31803589 -0.4220459 25.08911133 -0.45410156 C28 0 28 0 29.77734375 1.67431641 C31.14651198 4.27868872 32.09682994 6.79309095 32.98046875 9.6015625 C33.51305298 11.27581299 33.51305298 11.27581299 34.05639648 12.98388672 C34.42966064 14.1854541 34.8029248 15.38702148 35.1875 16.625 C35.58332275 17.87684082 35.97914551 19.12868164 36.38696289 20.41845703 C39.29230477 29.61881535 42.10162713 38.84881735 44.91333008 48.078125 C47.82000793 57.5549057 50.96234538 66.94637509 54.1262207 76.33984375 C58.98326106 90.81999495 63.49823312 105.40616925 68 120 C70.99323471 112.76791621 73.61691292 105.45581585 76.08984375 98.03125 C76.47099838 96.89284164 76.85215302 95.75443329 77.24485779 94.58152771 C78.4792743 90.88885483 79.70855696 87.19449772 80.9375 83.5 C81.36216677 82.22765916 81.78699255 80.95537138 82.2119751 79.68313599 C86.59474133 66.55745015 90.92806742 53.4208292 94.96484375 40.18359375 C95.26158493 39.21157013 95.55832611 38.23954651 95.86405945 37.23806763 C97.23044373 32.74653387 98.57855709 28.25043299 99.90209961 23.74609375 C105.65810425 4.39478536 105.65810425 4.39478536 113 0 C115.74902344 -0.34057617 115.74902344 -0.34057617 118.859375 -0.29296875 C119.97441406 -0.28330078 121.08945313 -0.27363281 122.23828125 -0.26367188 C123.39714844 -0.23853516 124.55601562 -0.21339844 125.75 -0.1875 C127.51150391 -0.16719727 127.51150391 -0.16719727 129.30859375 -0.14648438 C132.20619298 -0.1111478 135.10286427 -0.06180979 138 0 C137.26556592 3.38969577 136.0759307 5.2320924 134 8 C132.69739014 11.75821298 132.75596175 15.6699235 132.6484375 19.60546875 C132.62483154 20.40098648 132.60122559 21.19650421 132.5769043 22.01612854 C132.50146151 24.73977712 132.43677897 27.4635081 132.375 30.1875 C132.35254211 31.13943237 132.33008423 32.09136475 132.3069458 33.07214355 C131.82876795 54.7139884 132.07342348 76.35144027 132.34107208 97.99432755 C132.37493464 100.74469153 132.4073472 103.49507003 132.43963623 106.24545288 C132.49214422 110.6417092 132.55042281 115.03785439 132.6133728 119.43397331 C132.63643453 121.0702433 132.65823952 122.70653156 132.67868042 124.34283638 C131.92657507 139.520922 131.92657507 139.520922 137 153 C137 153.99 137 154.98 137 156 C108.19402985 154.59701493 108.19402985 154.59701493 105 153 C106.875 148.25 106.875 148.25 108 146 C108.09300842 144.31478185 108.121919 142.62586181 108.12025452 140.93807983 C108.12162918 139.86673294 108.12300385 138.79538605 108.12442017 137.6915741 C108.12082489 136.51122086 108.11722961 135.33086761 108.11352539 134.11474609 C108.11367142 132.87575058 108.11381744 131.63675507 108.1139679 130.36021423 C108.11338953 126.95752498 108.10836527 123.55489597 108.10139394 120.15221739 C108.09515368 116.59811295 108.09455607 113.04400775 108.09336853 109.48989868 C108.0902572 102.75738213 108.08204648 96.02488176 108.07201904 89.29237235 C108.06085176 81.6286288 108.0553459 73.96488448 108.05032361 66.30113482 C108.03986371 50.5340805 108.02226809 34.76704234 108 19 C107.70358109 19.88925674 107.40716217 20.77851349 107.10176086 21.69471741 C81.55004883 98.34985352 81.55004883 98.34985352 80.73121452 100.8062191 C80.19012579 102.42957646 79.64914607 104.05297015 79.10827827 105.67640114 C77.80464267 109.58887322 76.49927629 113.50074751 75.18966675 117.41122437 C73.03758782 123.84259602 70.89891592 130.27492802 68.85791016 136.74267578 C68.54565994 137.72003189 68.23340973 138.697388 67.91169739 139.70436096 C67.36514937 141.42212067 66.82911714 143.14328994 66.30741882 144.86875916 C64.69565725 149.9017934 62.62247124 153.13626046 59 157 C55.42142458 156.39506385 55.04501142 156.05575609 52.578125 153 C49.0742347 146.95218935 47.376029 140.17831564 45.4664917 133.50311279 C44.7293478 130.92785012 43.97729505 128.3573543 43.22119141 125.78759766 C42.3909022 122.96536959 41.5614869 120.14291488 40.7361145 117.31924438 C37.03076234 104.64663338 33.2054839 92.01024671 29.375 79.375 C29.01097076 78.17270752 28.64694153 76.97041504 28.2718811 75.73168945 C22.81209028 57.71713421 17.17943927 39.78188928 11 22 C10.82302319 27.06219572 10.65809937 32.12468648 10.5 37.1875 C10.47565887 37.95722137 10.45131775 38.72694275 10.42623901 39.51998901 C10.1384471 48.84596374 9.96121822 58.16146759 10.00390625 67.4921875 C10.0074411 68.34003311 10.01097595 69.18787872 10.01461792 70.06141663 C10.03532944 74.18800121 10.07149128 78.31390016 10.125 82.44018555 C10.13690357 83.94059099 10.14863165 85.44099785 10.16015625 86.94140625 C10.17699463 88.25826416 10.19383301 89.57512207 10.21118164 90.93188477 C10 94 10 94 8 96 C4.58583364 92.58583364 5.02930445 88.05345435 4.89993286 83.40272522 C4.91120209 82.12779709 4.92247131 80.85286896 4.93408203 79.53930664 C4.93875488 78.82937057 4.94342773 78.11943451 4.94824219 77.38798523 C4.95867899 75.85861187 4.97131909 74.32925224 4.98596573 72.79991341 C5.00814855 70.3733967 5.02212346 67.94695992 5.03366089 65.52037048 C5.06710388 58.62520506 5.10881808 51.73017222 5.17138672 44.83520508 C5.20917901 40.6061124 5.23209966 36.37715338 5.24569321 32.14791679 C5.25370799 30.54403383 5.26726044 28.940168 5.28662491 27.33638191 C5.5628264 15.81277606 5.5628264 15.81277606 2 5 C1.34 4.34 0.68 3.68 0 3 C0 2.01 0 1.02 0 0 Z " fill="#FEFEFE" transform="translate(91,3)"/>
<path d="M0 0 C2.80255617 1.97832147 5.43791178 3.87582356 7 7 C7.07181821 9.71760108 7.09299506 12.40859388 7.0625 15.125 C7.05798828 15.87910156 7.05347656 16.63320313 7.04882812 17.41015625 C7.03703499 19.27347127 7.01909942 21.13674555 7 23 C6.34 23 5.68 23 5 23 C3.73828125 21.09375 3.73828125 21.09375 2.3125 18.5 C-3.19102032 9.09204516 -8.60172423 3.46609192 -19 0 C-25.99728435 -0.77045911 -32.09162569 -0.0088378 -38 4 C-43.58137569 9.86111051 -44.46637988 15.62477061 -44.4140625 23.4375 C-43.30228387 33.00299163 -37.2667059 41.59631423 -29.94140625 47.640625 C-28.82078306 48.51772112 -27.69421102 49.3872578 -26.5625 50.25 C-25.95486816 50.72179688 -25.34723633 51.19359375 -24.72119141 51.6796875 C-21.08841484 54.47743975 -17.38826673 57.15731848 -13.62695312 59.77880859 C-6.17073479 64.97613358 0.52045159 70.62683223 7 77 C7.67804688 77.65355469 8.35609375 78.30710937 9.0546875 78.98046875 C20.54665135 90.95764886 24.49915276 107.24400881 24.35400391 123.39941406 C23.87595143 139.31415401 17.99832115 150.73810252 7 162 C8.28132813 161.95359375 9.56265625 161.9071875 10.8828125 161.859375 C29.02386149 161.39087801 42.41717292 166.45221143 58.921875 173.45703125 C64.3833164 175.76199442 69.88005179 177.93785151 75.4375 180 C76.17508545 180.2781958 76.9126709 180.5563916 77.67260742 180.84301758 C94.82637855 187.12299574 113.16043432 187.28494255 130 180 C134.20849009 177.92471246 138.11094792 175.62024146 142 173 C142.75667969 172.55140625 143.51335937 172.1028125 144.29296875 171.640625 C146.41135069 170.20300053 147.67563647 169.1981704 149 167 C149.55882147 162.93157079 149.41559832 159.07682163 149 155 C150.32 154.34 151.64 153.68 153 153 C152.9175 152.0925 152.835 151.185 152.75 150.25 C153 147 153 147 154.625 144.625 C157.66543996 142.54469897 159.3770651 142.62261095 163 143 C163.639375 143.185625 164.27875 143.37125 164.9375 143.5625 C167.23373697 144.18473146 167.23373697 144.18473146 170.5 143.375 C174 143 174 143 176.4375 144 C178.81775381 147.04672487 178.45383209 149.23967698 178 153 C176.6875 155.4375 176.6875 155.4375 175 158 C174.56699024 159.30719926 174.15163899 160.62032367 173.75 161.9375 C171.20751045 168.96907267 164.48189332 172.88370514 158 176 C157.01 175.67 156.02 175.34 155 175 C154.67 173.02 154.34 171.04 154 169 C151.88875683 168.76585966 151.88875683 168.76585966 150.51171875 170.46875 C149.60873047 171.47421875 149.60873047 171.47421875 148.6875 172.5 C136.29414732 185.13943008 118.6915864 191.75681472 101.1875 192.3125 C85.18400512 191.92416488 70.54953779 185.40420018 55.80908203 179.78320312 C53.65319921 178.96123425 51.49662594 178.14107394 49.33935547 177.32275391 C47.29292634 176.54507913 45.24882194 175.76124879 43.20751953 174.97021484 C27.05864517 168.81312818 11.50514407 168.01821963 -4.8125 174.8125 C-13.19509682 178.94956719 -19.05884697 183.74153308 -24.859375 191.12109375 C-25.56578125 191.74113281 -26.2721875 192.36117187 -27 193 C-29.765625 192.78515625 -29.765625 192.78515625 -32 192 C-32.69140625 189.75 -32.69140625 189.75 -33 187 C-31.77734375 184.9375 -31.77734375 184.9375 -29.9375 183 C-29.34839844 182.360625 -28.75929687 181.72125 -28.15234375 181.0625 C-25.54081724 178.55998458 -22.80095776 176.28844209 -20 174 C-21.74023438 173.87044922 -21.74023438 173.87044922 -23.515625 173.73828125 C-39.75166624 172.35189541 -52.6754489 168.00272151 -63.4609375 155.22265625 C-66.07332526 151.44994397 -67.56819796 147.33389543 -69 143 C-69.33 142.01 -69.66 141.02 -70 140 C-70.25383665 136.79627378 -70.23134838 133.58774178 -70.25 130.375 C-70.270625 129.51003906 -70.29125 128.64507812 -70.3125 127.75390625 C-70.37716447 116.97110528 -66.73415295 108.20756825 -59.5 100.25 C-52.57681576 94.01913419 -46.1958785 90.48595125 -36.8125 89.75 C-27.71624305 90.34647587 -20.17784402 93.44586679 -13.875 100.125 C-8.50700998 106.76435607 -6.32018683 113.89833208 -6.6796875 122.39453125 C-7.52142864 129.2413769 -10.14893256 134.14893256 -15 139 C-17.8125 140.375 -17.8125 140.375 -20 141 C-20.33 140.34 -20.66 139.68 -21 139 C-20.25370487 137.09767909 -19.42729641 135.22646116 -18.5625 133.375 C-16.03348033 127.45511598 -14.5143661 123.22773477 -16.734375 116.91015625 C-19.36496937 111.12069241 -22.79262449 106.74066093 -28.75 104.1875 C-36.3414418 101.71850771 -43.00876258 102.66957613 -50.3515625 105.62109375 C-56.81556181 108.98656832 -60.77262034 113.65633304 -63.5 120.375 C-66.61329387 130.49320509 -65.0910241 139.31264917 -61 149 C-56.09052765 157.72505696 -48.54314815 162.57890804 -39.25 165.875 C-28.17730531 168.79986275 -16.88392302 167.64442984 -6.8125 162.3125 C0.68103095 156.15115233 5.4236907 149.69087542 7 140 C7.89009324 126.80910999 6.96365701 114.50592866 -2.05859375 104.08984375 C-2.69925781 103.40019531 -3.33992188 102.71054688 -4 102 C-4.58910156 101.32066406 -5.17820312 100.64132813 -5.78515625 99.94140625 C-11.48261568 93.76821462 -18.20339074 89.06886282 -24.97290039 84.16235352 C-42.23643131 71.61277425 -57.25883351 55.8396667 -61 34 C-61.63474651 24.59918529 -59.31192037 16.76785008 -54 9 C-39.87444831 -6.92382303 -18.64288716 -8.83084128 0 0 Z " fill="#FEFEFE" transform="translate(77,8)"/>
</svg>
